<?xml version="1.0" encoding="UTF-8" standalone="no"?>
<svg
   xmlns:dc="http://purl.org/dc/elements/1.1/"
   xmlns:cc="http://creativecommons.org/ns#"
   xmlns:rdf="http://www.w3.org/1999/02/22-rdf-syntax-ns#"
   xmlns:svg="http://www.w3.org/2000/svg"
   xmlns="http://www.w3.org/2000/svg"
   xmlns:sodipodi="http://sodipodi.sourceforge.net/DTD/sodipodi-0.dtd"
   xmlns:inkscape="http://www.inkscape.org/namespaces/inkscape"
   version="1.1"
   id="svg2"
   xml:space="preserve"
   width="1122.52"
   height="793.70667"
   viewBox="0 0 1122.52 793.70667"
   sodipodi:docname="Plane.ai"><metadata
     id="metadata8"><rdf:RDF><cc:Work
         rdf:about=""><dc:format>image/svg+xml</dc:format><dc:type
           rdf:resource="http://purl.org/dc/dcmitype/StillImage" /></cc:Work></rdf:RDF></metadata><defs
     id="defs6"><clipPath
       clipPathUnits="userSpaceOnUse"
       id="clipPath18"><path
         d="M 0,595.28 H 841.89 V 0 H 0 Z"
         id="path16" /></clipPath></defs><sodipodi:namedview
     pagecolor="#ffffff"
     bordercolor="#666666"
     borderopacity="1"
     objecttolerance="10"
     gridtolerance="10"
     guidetolerance="10"
     inkscape:pageopacity="0"
     inkscape:pageshadow="2"
     inkscape:window-width="640"
     inkscape:window-height="480"
     id="namedview4" /><g
     id="g10"
     inkscape:groupmode="layer"
     inkscape:label="Plane"
     transform="matrix(1.3333333,0,0,-1.3333333,0,793.70667)"><g
       id="g12"><g
         id="g14"
         clip-path="url(#clipPath18)"><g
           id="g20"
           transform="translate(662.25,207.5352)"><path
             d="m 0,0 c 0,3.215 -2.072,6.51 -6.236,10.563 -2.885,2.804 -41.418,37.435 -85.129,76.648 0.597,2.69 1.224,7.272 1.224,14.507 0,9.006 -0.812,13.172 -1.875,16.211 -1.062,3.043 -2.699,2.701 -2.699,2.701 h -13.211 c 0,0 -1.732,0.373 -2.699,-2.701 -0.869,-2.761 -1.551,-5.854 -1.768,-11.861 -10.435,9.359 -20.892,18.731 -30.976,27.769 l -8.231,7.383 c 0.575,2.733 1.149,7.223 1.149,14.146 0,9.007 -0.813,13.172 -1.875,16.211 -1.063,3.043 -2.697,2.701 -2.697,2.701 h -13.213 c 0,0 -1.733,0.373 -2.7,-2.701 -0.849,-2.7 -1.519,-5.718 -1.75,-11.468 -18.185,16.292 -33.16,29.704 -41.623,37.282 -0.265,8.73 -1.347,14.041 -3.146,18.422 v 52.274 c 0,12.385 -7.697,47.394 -24.261,47.394 -16.564,0 -24.264,-35.009 -24.264,-47.394 v -52.276 c -1.799,-4.38 -2.879,-9.691 -3.145,-18.419 -8.462,-7.578 -23.438,-20.991 -41.623,-37.283 -0.23,5.75 -0.901,8.768 -1.751,11.468 -0.966,3.074 -2.699,2.701 -2.699,2.701 h -13.211 c 0,0 -1.635,0.342 -2.699,-2.701 -1.062,-3.039 -1.875,-7.204 -1.875,-16.211 0,-6.923 0.575,-11.414 1.149,-14.147 l -8.233,-7.384 c -10.085,-9.038 -20.539,-18.41 -30.975,-27.768 -0.216,6.008 -0.897,9.101 -1.766,11.862 -0.967,3.074 -2.699,2.701 -2.699,2.701 h -13.212 c 0,0 -1.635,0.342 -2.699,-2.701 -1.063,-3.039 -1.874,-7.205 -1.874,-16.211 0,-7.235 0.627,-11.817 1.224,-14.507 -43.71,-39.213 -82.245,-73.844 -85.128,-76.648 -4.166,-4.053 -6.237,-7.348 -6.237,-10.563 0,0 -0.021,-10.494 -0.021,-14.488 0,-2.703 1.455,-1.508 1.455,-1.508 l 17.338,10.519 55.258,31.207 c 0.364,-2.744 0.887,-5.552 1.505,-5.566 0.697,-0.018 1.16,3.902 1.428,7.223 l 31.635,17.865 c 0.353,-2.381 0.821,-4.543 1.363,-4.555 0.618,-0.015 1.052,3.065 1.329,6.076 l 16.697,9.43 c 0.331,-1.959 0.743,-3.558 1.208,-3.57 0.54,-0.014 0.94,2.338 1.217,4.939 l 20.056,11.326 c 0.323,-1.851 0.719,-3.326 1.167,-3.337 0.521,-0.014 0.911,2.175 1.186,4.668 l 17.311,9.775 c 0.338,-3.178 0.989,-8.072 1.805,-8.092 0.893,-0.021 1.402,6.401 1.608,9.764 l 40.697,12.786 V 74.219 c 0,-10.188 1.377,-16.682 3.211,-22.475 V 2.908 c 0,-12.863 1.716,-27.162 4.429,-42.113 l -57.481,-63.666 0.031,-23.924 7.743,5.877 54.036,40.967 v 0.041 l 3.989,3.027 c 2.691,-10.363 6.004,-20.14 9.386,-28.383 h 1.216 c 0.504,-7.281 0.915,-10.341 0.915,-10.341 0,0 0.417,3.06 0.927,10.341 h 1.203 c 3.381,8.243 6.695,18.02 9.385,28.383 l 3.99,-3.027 v -0.041 l 53.106,-40.262 8.673,-6.582 0.032,23.924 -57.483,63.666 c 2.713,14.951 4.428,29.25 4.428,42.113 v 48.834 c 1.834,5.793 3.213,12.289 3.213,22.477 v 20.243 l 40.697,-12.786 c 0.205,-3.363 0.715,-9.785 1.608,-9.764 0.814,0.02 1.466,4.916 1.804,8.092 l 17.311,-9.775 c 0.275,-2.493 0.666,-4.682 1.187,-4.668 0.446,0.011 0.844,1.486 1.166,3.337 l 20.057,-11.326 c 0.277,-2.601 0.676,-4.953 1.217,-4.939 0.465,0.012 0.877,1.611 1.207,3.57 l 16.697,-9.43 c 0.277,-3.011 0.711,-6.091 1.33,-6.076 0.541,0.012 1.01,2.174 1.363,4.555 l 31.635,-17.865 c 0.268,-3.321 0.729,-7.241 1.428,-7.223 0.617,0.014 1.14,2.822 1.506,5.566 l 55.254,-31.205 17.341,-10.521 c 0,0 1.455,-1.195 1.455,1.508 C 0.021,-10.494 0,0 0,0"
             style="fill:#ffffff;fill-opacity:1;fill-rule:nonzero;stroke:none"
             id="path22" /></g></g></g></g></svg>
